<svg width="100" height="90" viewBox="0 0 100 90" fill="none" xmlns="http://www.w3.org/2000/svg">
<rect width="100" height="90" fill="url(#paint0_linear_104_2)"/>
<path d="M9 44.4068H14.5037V82.5488H9V44.4068ZM12.7503 66.7369L26.8477 44.4068H33.7116L12.7975 75.4129L12.7503 66.7369ZM18.3248 62.7168L22.885 58.8131L35.1189 82.5488H28.5067L18.3248 62.7168Z" fill="black"/>
<path d="M39.7262 44.4069H45.2299V82.5488H39.7262V44.4069ZM42.3758 61.7498H53.0844C53.9127 61.7739 54.7301 61.5319 55.4432 61.0515C56.123 60.5771 56.6689 59.8903 57.0157 59.0727C57.4066 58.1494 57.6006 57.134 57.5818 56.1091C57.6001 55.0767 57.409 54.0533 57.0235 53.1186C56.68 52.2939 56.1338 51.6003 55.451 51.122C54.7377 50.6415 53.921 50.3966 53.0923 50.4147H42.3758V44.4069H52.9272C54.8024 44.3629 56.6562 44.8652 58.313 45.8663C59.8426 46.8084 61.099 48.2361 61.9297 49.9759C62.7776 51.8746 63.2196 53.9746 63.2196 56.1046C63.2196 58.2347 62.7776 60.3347 61.9297 62.2333C61.0936 63.9617 59.838 65.3791 58.313 66.3161C56.653 67.3054 54.8004 67.8012 52.9272 67.7576H42.3758V61.7498Z" fill="black"/>
<path d="M74.2897 82.4056C72.8511 82.0645 71.4525 81.5326 70.1226 80.8208C68.8423 80.1333 67.6451 79.2607 66.5609 78.2243L69.4858 73.2103C70.7662 74.4489 72.238 75.4054 73.8258 76.0307C75.4663 76.6788 77.1921 77.0028 78.9285 76.9887C80.7466 77.1053 82.5566 76.6334 84.1491 75.6278C84.7322 75.231 85.2116 74.6641 85.5378 73.9857C85.8641 73.3073 86.0252 72.5419 86.0047 71.7688C86.0534 70.7501 85.7549 69.7493 85.1713 68.9753C84.5824 68.2578 83.836 67.7323 83.0091 67.4532C81.8823 67.069 80.7346 66.7699 79.5732 66.5579C79.529 66.5493 79.4838 66.5493 79.4396 66.5579C79.3927 66.5664 79.3449 66.5664 79.298 66.5579L78.8813 66.4862C77.0135 66.1626 75.1726 65.6625 73.3776 64.991C71.9112 64.3909 70.6317 63.3137 69.698 61.8931C68.6838 60.4068 68.1727 58.3117 68.1727 55.5719C68.1184 53.3931 68.6151 51.2425 69.6037 49.376C70.6022 47.6233 72.0482 46.2609 73.7472 45.4723C75.825 44.5242 78.0511 44.0702 80.2887 44.1382C81.4896 44.1162 82.6891 44.2423 83.8661 44.5143C85.0835 44.8261 86.2712 45.2729 87.4121 45.8483C88.5957 46.4544 89.7253 47.189 90.785 48.042L88.1118 53.2081C86.9042 52.2093 85.5813 51.4049 84.1806 50.8176C82.9204 50.2948 81.5907 50.0223 80.2494 50.0118C78.5327 49.895 76.8238 50.3558 75.3354 51.3369C74.783 51.7301 74.3314 52.2824 74.0263 52.938C73.7212 53.5935 73.5734 54.3291 73.5978 55.0705C73.5727 55.5947 73.6405 56.1194 73.7972 56.6131C73.9539 57.1069 74.1962 57.5597 74.5098 57.9446C75.1319 58.6632 75.9024 59.1927 76.7506 59.4846C77.9901 59.8992 79.247 60.2428 80.5167 60.5142L80.6897 60.559H80.8627L81.1221 60.6127L81.3737 60.6664C83.1478 61.0404 84.8858 61.6101 86.5629 62.3676C87.9648 63.0472 89.1734 64.1569 90.0538 65.573C91.0701 67.3552 91.5629 69.4589 91.4612 71.5808C91.5133 73.74 91.0016 75.8682 89.9909 77.696C88.9443 79.4549 87.4485 80.8051 85.7059 81.564C83.5448 82.5067 81.242 82.9569 78.9285 82.8891C77.3716 82.9131 75.8169 82.7511 74.2897 82.4056Z" fill="black"/>
<path d="M49.2062 6.3L90.4433 36.9383" stroke="black" stroke-width="4" stroke-miterlimit="10"/>
<path d="M51.2681 6.3L10.0309 36.9383" stroke="black" stroke-width="4" stroke-miterlimit="10"/>
<defs>
<linearGradient id="paint0_linear_104_2" x1="50" y1="0" x2="50" y2="90" gradientUnits="userSpaceOnUse">
<stop stop-color="#FFC700"/>
<stop offset="0.0001" stop-color="#FFC700" stop-opacity="0.984375"/>
<stop offset="1" stop-color="#B08A00"/>
</linearGradient>
</defs>
</svg>
